<?xml version="1.0" standalone="no"?><!DOCTYPE svg PUBLIC "-//W3C//DTD SVG 1.1//EN"
  "http://www.w3.org/Graphics/SVG/1.1/DTD/svg11.dtd">
<svg t="1547816326656" class="icon" style="" viewBox="0 0 1024 1024" version="1.1" xmlns="http://www.w3.org/2000/svg"
     p-id="4247" xmlns:xlink="http://www.w3.org/1999/xlink" width="200" height="200">
  <defs>
    <style type="text/css"></style>
  </defs>
  <path
    d="M503.808 55.296C251.904 55.296 47.104 260.096 47.104 512s204.8 456.704 456.704 456.704 456.704-204.8 456.704-456.704C964.608 260.096 759.808 55.296 503.808 55.296zM503.808 94.208c106.496 0 204.8 43.008 277.504 106.496L683.008 307.2c-47.104-43.008-106.496-64.512-175.104-64.512S379.904 268.288 332.8 307.2L226.304 204.8C299.008 136.192 397.312 94.208 503.808 94.208zM734.208 512c0 128-102.4 230.4-230.4 230.4S273.408 640 273.408 512s102.4-230.4 230.4-230.4S734.208 384 734.208 512zM89.088 512c0-106.496 43.008-204.8 106.496-277.504l102.4 102.4c-38.912 47.104-64.512 106.496-64.512 175.104s25.6 128 64.512 175.104l-102.4 102.4C128 716.8 89.088 618.496 89.088 512zM503.808 929.792c-106.496 0-204.8-43.008-277.504-106.496l102.4-102.4c47.104 43.008 106.496 64.512 175.104 64.512s128-25.6 175.104-64.512l102.4 102.4C708.608 887.808 614.4 929.792 503.808 929.792zM815.104 789.504l-102.4-102.4c43.008-47.104 64.512-106.496 64.512-175.104s-25.6-128-64.512-175.104l102.4-102.4C883.712 307.2 921.6 405.504 921.6 512S878.592 716.8 815.104 789.504z"
    p-id="4248"></path>
</svg>
