<?xml version="1.0" standalone="no"?><!DOCTYPE svg PUBLIC "-//W3C//DTD SVG 1.1//EN" "http://www.w3.org/Graphics/SVG/1.1/DTD/svg11.dtd"><svg t="1546431533733" class="icon" style="" viewBox="0 0 1024 1024" version="1.1" xmlns="http://www.w3.org/2000/svg" p-id="3288" xmlns:xlink="http://www.w3.org/1999/xlink" width="200" height="200"><defs><style type="text/css"></style></defs><path d="M914.285714 219.428571H768v-91.428571c0-40.342857-32.8-73.142857-73.142857-73.142857H329.142857c-40.342857 0-73.142857 32.8-73.142857 73.142857v91.428571H109.714286c-20.228571 0-36.571429 16.342857-36.571429 36.571429v36.571429c0 5.028571 4.114286 9.142857 9.142857 9.142857h69.028572l28.228571 597.714285c1.828571 38.971429 34.057143 69.714286 73.028572 69.714286h518.857142c39.085714 0 71.2-30.628571 73.028572-69.714286l28.228571-597.714285H941.714286c5.028571 0 9.142857-4.114286 9.142857-9.142857v-36.571429c0-20.228571-16.342857-36.571429-36.571429-36.571429z m-228.571428 0H338.285714v-82.285714h347.428572v82.285714z" p-id="3289"></path></svg>